<?xml version="1.0" encoding="UTF-8"?>
<svg id="Layer_1" xmlns="http://www.w3.org/2000/svg" version="1.1" viewBox="0 0 360 360">
  <!-- Generator: Adobe Illustrator 29.2.1, SVG Export Plug-In . SVG Version: 2.1.0 Build 116)  -->
  <defs>
    <style>
      .st0 {
        fill: #febc11;
      }

      .st1 {
        fill: #fff;
      }

      .st2 {
        fill: #f8981e;
      }
    </style>
  </defs>
  <path class="st0" d="M180.88,157.42h9.04v-.94l-9.04.94Z"/>
  <path class="st0" d="M129.26,244.9h0c-.07-.02-.16-.03-.23-.05l.12.18h0c6.71,1.18,13.48,1.39,20.06.2.04,0,.08-.02.12-.02v-.12c-6.58,1.21-13.36.99-20.07-.19ZM171.98,248.65h.02c.06-.03.11-.07.16-.11.62-.42,1.23-.84,1.82-1.28.58-.41,1.13-.83,1.68-1.27-1.19.92-2.42,1.81-3.69,2.66ZM175.67,246s.06-.03.08-.06c.5-.39,1-.78,1.48-1.19.13-.11.26-.21.4-.33.5-.42.99-.84,1.47-1.27-1.11.97-2.25,1.92-3.43,2.85ZM173.58,231.74c-4.54,4.5-9.97,8.5-16.33,11.05-.09.03-.18.07-.27.11.04.02.07.04.12.06,6.48-2.58,11.98-6.64,16.57-11.19-.02,0-.05-.02-.07-.02Z"/>
  <path class="st0" d="M244.69,222.67c.04,4.29-1.3,8.59-4.03,12.98-2.73,4.34-7.29,8.09-13.69,11.27-6.4,3.18-14.64,4.97-24.79,5.42-5.77.22-11.32-.05-16.69-.81-4.91-.7-9.45-1.67-13.49-2.87.06-.03.11-.07.16-.11.62-.42,1.23-.84,1.82-1.28.58-.41,1.13-.83,1.68-1.27.02-.02.06-.03.08-.06.5-.39,1-.78,1.48-1.19.13-.11.26-.21.4-.33.5-.41.99-.83,1.47-1.27.31-.27.63-.55.94-.84.62-.56,1.22-1.13,1.81-1.71,1.77-1.72,3.43-3.51,4.97-5.31,5.06.99,10.17,1.47,15.34,1.47,5.82,0,10.47-.76,14.01-2.33,3.53-1.57,6.04-3.4,7.47-5.54,1.39-2.15,2.01-4.12,1.87-5.96-.26-3.31-1.79-6.09-4.6-8.37-2.82-2.29-6.22-4.17-10.3-5.59-1.91-.7-4.18-1.45-6.79-2.27-1.79-.55-3.74-1.14-5.85-1.76l-.08-.02c-1.25-.37-2.57-.75-3.93-1.14-.7-.19-1.39-.39-2.07-.58h0c-8.37-2.34-15.23-4.57-20.56-6.67-5.77-2.29-10.79-5.55-15.04-9.76-4.25-4.21-6.58-9.62-6.98-16.15v49.67c6.48,3.76,12.17,6.67,16.96,8.73,2.27.97,4.69,1.87,7.28,2.72-4.54,4.5-9.97,8.5-16.33,11.05-.09.03-.18.07-.27.11-2.34-1.17-4.88-2.57-7.64-4.17v6.36c-6.58,1.21-13.36.99-20.07-.19h0c-.07-.02-.16-.03-.23-.05l-50.27-73.07v49.42c-7.71-5.49-13.18-9.8-15.12-11.52-.26-.22-.45-.4-.59-.52.83,1.55,6.01,10.4,15.71,20.23v21.82h-16.47v-109.32h15.88l54.64,79.34v-63.81h-40.72v-15.53h88.16c-5.55.89-10.3,2.37-14.32,4.47-6,3.13-10.29,6.81-12.89,11.05h-3.71v10.69c.26-3.4,1.48-6.89,3.53-10.42.05-.09.09-.18.18-.27h27.83c-2.33.45-4.3,1.07-5.95,1.83-3.32,1.62-5.46,3.36-6.45,5.29-.98,1.92-1.25,3.84-.93,5.73.54,2.73,2.14,5.06,4.88,7.02,2.73,1.93,6,3.54,9.8,4.83,3.8,1.25,8.99,2.78,15.66,4.57,5.11,1.33,9.75,2.65,13.89,3.94l.16.04c3.74,1.17,7.06,2.32,9.98,3.44,6.22,2.42,11.54,5.91,16.02,10.56,4.43,4.65,6.67,10.65,6.76,17.99Z"/>
  <path class="st0" d="M175.67,246s.06-.03.08-.06c-.58.45-1.16.89-1.77,1.33.57-.41,1.13-.83,1.68-1.27Z"/>
  <path class="st2" d="M286.75,130.34c-9.85,14.01-18.93,28.59-28.96,42.43-1.2,1.7-2.28,3.49-4.69,3.27-2.15-.27-3.45-2.78-3.98-4.66l-2.24-11.1c-.22,0-1.88.94-2.15,1.07-1.83,1.03-3.66,2.15-5.54,3.23-2.45,1.21-4.73,2.57-6.85,4.03-13.59,9.26-20.41,22.07-20.41,22.07l-.16-.04c-4.14-1.3-8.78-2.62-13.89-3.94,6.2-10.98,13.76-19.24,20.25-25.05,8.27-7.38,14.83-10.8,14.83-10.8,1.92-1.03,3.89-2.1,5.63-3.13.18-.13.4-.22.63-.26.13-.18-.4-.63-.54-.77-2.37-2.28-9.62-7.52-10.06-10.56-.68-4.65,3.66-4.38,6.84-4.65,8.95-.81,17.86-1.39,26.81-2.05,7.2-.54,14.81-1.57,22.01-1.79,1.75-.05,3.13.85,2.47,2.72Z"/>
  <path class="st2" d="M211.77,190.63l-13.89-3.94c5.11,1.33,9.75,2.65,13.89,3.94Z"/>
  <path class="st0" d="M232.97,150.84s-6.57,3.42-14.83,10.8c-.12-.05-.26-.1-.38-.15-4.17-1.62-8.69-2.91-13.56-3.89-4.7-.9-9.49-1.3-14.27-1.12v-14.59h-9.67c2.86-.49,5.91-.81,9.17-.94,5.41-.22,10.65.04,15.71.81,5.06.76,9.62,1.83,13.74,3.13,4.08,1.34,7.61,2.73,10.52,4.12,1.11.54,2.33,1.16,3.58,1.84Z"/>
  <path class="st2" d="M203.84,206.7c-.79,2.16-6.01,15.66-16.8,28.35-.07.08-.14.16-.21.24-1.54,1.8-3.2,3.59-4.97,5.31-.59.58-1.2,1.15-1.81,1.71-.31.29-.63.57-.94.84-.48.43-.97.85-1.47,1.27-.13.12-.26.22-.4.33-.49.4-.98.8-1.48,1.19-.58.45-1.16.89-1.77,1.33-.59.44-1.2.86-1.82,1.28-.06.03-.11.07-.16.11-5.76,3.88-12.39,6.98-19.94,8.64-4,.88-8.08,1.32-12.24,1.32-28.26-2.2-48.28-16.58-61.03-29.22-8.71-8.63-13.4-16.2-15.14-19.18-.28-.47-.48-.83-.6-1.05,1.11,1.01,6.96,5.77,15.71,12.04,0,0,.02,0,.02.02,12.63,9.07,31.26,20.22,50.24,23.63.07.02.16.02.23.04h0c6.72,1.19,13.5,1.41,20.07.2h.02l.12-.02c2.64-.49,5.14-1.22,7.5-2.16.09-.03.18-.07.27-.11,6.37-2.56,11.8-6.56,16.33-11.05l.26-.26c10.86-10.86,16.64-24.56,18.08-28.28h0c.68.19,1.37.39,2.07.58,1.36.39,2.67.77,3.93,1.14l.08.02c2.11.62,4.06,1.2,5.85,1.76Z"/>
  <g>
    <g>
      <path class="st1" d="M310.07,109.36c-.18-.37-.45-.7-.77-.94.34.25.6.57.77.94Z"/>
      <path class="st1" d="M308.3,126.26c-.39,7.64-6.88,14.38-14.56,14.86l-.13-2.96c1.95-.27,3.75-.93,5.44-1.91.09-.05.29,0,.19-.25-.05-.13-2.01-1.85-2.15-1.86-1.82.94-3.89,1.37-5.95,1.18l-.58-.08-1.95-.29.24-.38,1.56-2.48c2.45.48,4.74-.15,6.67-1.67.7.43,3.9,3.8,4.44,3.7,2.19-1.98,3.53-4.91,3.81-7.85h2.97Z"/>
      <path class="st1" d="M291.14,135.32c-.11,0-.32-.04-.58-.08l.58.08Z"/>
      <path class="st1" d="M301.81,128.9l-.3.71h0s-.27.64-.27.64l-.22-.19-2.05-1.83q.26-.9.35-1.37c.42-2.03.33-4.46-1.06-6.09l-2.59,2.33s-.05.09-.06.14c.2.46.31.96.31,1.49,0,2.08-1.69,3.77-3.77,3.77s-3.77-1.69-3.77-3.77,1.69-3.77,3.77-3.77c.65,0,1.25.16,1.78.45l4.67-4.78c3.81,2.46,4.86,8.23,3.22,12.29Z"/>
      <path class="st1" d="M301.81,128.9c-.07.18-.17.47-.3.71l.3-.71Z"/>
      <path class="st1" d="M305.32,142.66c-6.2,4.98-15.53,6.06-22.57,2.23l1.42-2.45c1.51.42,2.94,1.01,4.49,1.3,4.58.87,8.74.08,12.81-2.1.41-.22,1.29-.69,2.05-1.1.04-.02.3.32.42.44.25.26,1.07,1.17,1.38,1.68Z"/>
      <path class="st1" d="M284.96,123.12l-3.11.16c.58-6.66,8.21-11.3,14.27-8.24.07.29-1.63,1.9-1.88,2.28-1.64-.13-3.03-.29-4.61.29-2.34.86-4.23,3.06-4.67,5.51Z"/>
      <path class="st1" d="M290.47,138.15v2.97c-1.67-.03-3.26-.6-4.76-1.27l1.51-2.59c1.09.29,2.12.75,3.25.88Z"/>
    </g>
    <path class="st1" d="M307.65,140.52l-.32-.32c.11.11.21.21.3.3l.02.02Z"/>
    <path class="st1" d="M307.65,140.52s-.01-.01-.02-.02c-.09-.09-.19-.19-.3-.3l-.07-.07s-.06-.06-.09-.09l-.19-.19-.1-.1-.16-.16-1.14-1.14.21-.21c.03-.13,1.46-1.61,1.74-1.99,4.47-6.01,4.82-14.15,1.5-20.76l.61-.32,2.06-1.08c.16.1,1.33,2.95,1.46,3.37,2.57,7.9.76,17.44-5.52,23.06Z"/>
    <path class="st1" d="M307.32,113.11c-.05,0-.11-.02-.16-.03.05,0,.1.01.16.03Z"/>
    <path class="st1" d="M310.19,111.33s0,0,0,0c-.35,1.04-1.33,1.8-2.49,1.8-.13,0-.26,0-.38-.03-.05-.01-.11-.03-.16-.03-.07,0-.13,0-.19.02-.18.07-1.62,1.61-1.64,1.79-.04.37.97,1.71,1.22,2.2.92,1.8,1.63,3.87,1.76,5.9h-2.97c-.7-5.99-5.6-10.88-11.59-11.59v-2.97c2.46.11,5.12,1.06,7.18,2.41.45.29,2.2,1.85,2.43,1.87.2.02.33-.1.49-.2.12-.08,1.12-1.07,1.15-1.14.42-.99-.65-1.62-1.31-2.1-5.68-4.22-13.26-5.04-19.71-2.05-.22.11-.77.44-1.34.79l-1.65.99h0s-.11.07-.11.07l-.04-.04-1.95-2.02s1.22-1.12,2.41-1.86c7.54-4.27,16.54-3.56,23.56,1.3.43.29,1.54,1.35,1.8,1.47.09.04.19.07.3.08.42.05.95-.05,1.37.03.37.07.68.21.95.4,0,0,0,0,0,0,.33.25.59.57.77.94,0,.02.01.03.02.05.26.59.3,1.28.11,1.91Z"/>
    <path class="st1" d="M310.19,111.33c.19-.63.15-1.32-.11-1.91.15.33.24.7.24,1.09,0,.29-.05.56-.13.82Z"/>
    <path class="st1" d="M290.47,108.28v3.12c-6.1.59-11.12,5.94-11.44,12.04l-3.12.15c.12-2.91,1.09-5.56,2.65-7.98-.24-.31-1.88-2.12-2.06-2.28-1.99,3.18-3.39,6.59-3.57,10.4l-2.97.15c.03-4.26,1.6-8.76,4.04-12.24.12-.16.33-.45.59-.78,0,0,0,0,0,0,0,0,0,0,0,0,0,0,.01-.01.02-.03.22-.26,1.41-1.51,1.78-1.9.07-.07.11-.12.11-.12l.33.33.84.84c.94,1.01,1.68,2.33,2.73,3.19,2.72-2.71,6.2-4.47,10.05-4.89Z"/>
  </g>
</svg>